<mxfile host="localhost" modified="2020-05-12T16:09:27.507Z" agent="5.0 (Macintosh; Intel Mac OS X 10_14_6) AppleWebKit/537.36 (KHTML, like Gecko) Code/1.44.2 Chrome/78.0.3904.130 Electron/7.1.11 Safari/537.36" etag="0d9ankP8fE9h0ATr7IUR" version="13.0.9">
    <diagram id="WpryCl_2ZccOEQAxlRB6" name="Page-1">
        <mxGraphModel dx="786" dy="448" grid="1" gridSize="10" guides="1" tooltips="1" connect="1" arrows="1" fold="1" page="1" pageScale="1" pageWidth="850" pageHeight="1100" math="0" shadow="0">
            <root>
                <mxCell id="UYFH1C3IYtYCgIGTboO--0"/>
                <mxCell id="UYFH1C3IYtYCgIGTboO--1" parent="UYFH1C3IYtYCgIGTboO--0"/>
                <mxCell id="UYFH1C3IYtYCgIGTboO--2" value="" style="whiteSpace=wrap;html=1;aspect=fixed;" parent="UYFH1C3IYtYCgIGTboO--1" vertex="1">
                    <mxGeometry x="240" y="260" width="120" height="120" as="geometry"/>
                </mxCell>
                <mxCell id="UYFH1C3IYtYCgIGTboO--5" value="&lt;table border=&quot;1&quot; width=&quot;100%&quot; cellpadding=&quot;4&quot; style=&quot;width: 100% ; height: 100% ; border-collapse: collapse&quot;&gt;&lt;tbody&gt;&lt;tr&gt;&lt;th align=&quot;center&quot;&gt;Bottle&lt;/th&gt;&lt;/tr&gt;&lt;tr&gt;&lt;td align=&quot;center&quot;&gt;1. user_id&lt;br&gt;2. winery_id&lt;br&gt;3. grape&lt;br&gt;4. year&lt;br&gt;5. price&lt;/td&gt;&lt;/tr&gt;&lt;tr&gt;&lt;td align=&quot;center&quot;&gt;&lt;br&gt;&lt;/td&gt;&lt;/tr&gt;&lt;/tbody&gt;&lt;/table&gt;" style="text;html=1;strokeColor=none;fillColor=none;overflow=fill;" parent="UYFH1C3IYtYCgIGTboO--1" vertex="1">
                    <mxGeometry x="250" y="270" width="100" height="100" as="geometry"/>
                </mxCell>
                <mxCell id="UYFH1C3IYtYCgIGTboO--6" value="" style="whiteSpace=wrap;html=1;aspect=fixed;" parent="UYFH1C3IYtYCgIGTboO--1" vertex="1">
                    <mxGeometry x="50" y="60" width="120" height="120" as="geometry"/>
                </mxCell>
                <mxCell id="UYFH1C3IYtYCgIGTboO--7" value="&lt;table border=&quot;1&quot; width=&quot;100%&quot; cellpadding=&quot;4&quot; style=&quot;width: 100% ; height: 100% ; border-collapse: collapse&quot;&gt;&lt;tbody&gt;&lt;tr&gt;&lt;th align=&quot;center&quot;&gt;User&lt;/th&gt;&lt;/tr&gt;&lt;tr&gt;&lt;td align=&quot;center&quot;&gt;1. name&lt;br&gt;2. email&lt;br&gt;3. password&lt;br&gt;&lt;/td&gt;&lt;/tr&gt;&lt;tr&gt;&lt;td align=&quot;center&quot;&gt;&lt;br&gt;&lt;/td&gt;&lt;/tr&gt;&lt;/tbody&gt;&lt;/table&gt;" style="text;html=1;strokeColor=none;fillColor=none;overflow=fill;" parent="UYFH1C3IYtYCgIGTboO--1" vertex="1">
                    <mxGeometry x="65" y="70" width="90" height="70" as="geometry"/>
                </mxCell>
                <mxCell id="UYFH1C3IYtYCgIGTboO--8" value="" style="whiteSpace=wrap;html=1;aspect=fixed;" parent="UYFH1C3IYtYCgIGTboO--1" vertex="1">
                    <mxGeometry x="420" y="60" width="120" height="120" as="geometry"/>
                </mxCell>
                <mxCell id="UYFH1C3IYtYCgIGTboO--9" value="" style="edgeStyle=elbowEdgeStyle;elbow=horizontal;endArrow=classic;html=1;exitX=0.5;exitY=1;exitDx=0;exitDy=0;entryX=0;entryY=0.5;entryDx=0;entryDy=0;" parent="UYFH1C3IYtYCgIGTboO--1" source="UYFH1C3IYtYCgIGTboO--6" target="UYFH1C3IYtYCgIGTboO--2" edge="1">
                    <mxGeometry width="50" height="50" relative="1" as="geometry">
                        <mxPoint x="270" y="260" as="sourcePoint"/>
                        <mxPoint x="320" y="210" as="targetPoint"/>
                        <Array as="points">
                            <mxPoint x="110" y="290"/>
                        </Array>
                    </mxGeometry>
                </mxCell>
                <mxCell id="UYFH1C3IYtYCgIGTboO--10" value="" style="edgeStyle=elbowEdgeStyle;elbow=horizontal;endArrow=classic;html=1;exitX=0.5;exitY=1;exitDx=0;exitDy=0;entryX=1;entryY=0.5;entryDx=0;entryDy=0;" parent="UYFH1C3IYtYCgIGTboO--1" source="UYFH1C3IYtYCgIGTboO--8" target="UYFH1C3IYtYCgIGTboO--2" edge="1">
                    <mxGeometry width="50" height="50" relative="1" as="geometry">
                        <mxPoint x="120" y="190" as="sourcePoint"/>
                        <mxPoint x="250" y="330" as="targetPoint"/>
                        <Array as="points">
                            <mxPoint x="480" y="320"/>
                        </Array>
                    </mxGeometry>
                </mxCell>
                <mxCell id="UYFH1C3IYtYCgIGTboO--11" value="&lt;table border=&quot;1&quot; width=&quot;100%&quot; cellpadding=&quot;4&quot; style=&quot;width: 100% ; height: 100% ; border-collapse: collapse&quot;&gt;&lt;tbody&gt;&lt;tr&gt;&lt;th align=&quot;center&quot;&gt;Winery&lt;/th&gt;&lt;/tr&gt;&lt;tr&gt;&lt;td align=&quot;center&quot;&gt;1. name&lt;br&gt;2. address&lt;br&gt;3. email&lt;br&gt;4. phone&lt;br&gt;&lt;br&gt;&lt;/td&gt;&lt;/tr&gt;&lt;tr&gt;&lt;td align=&quot;center&quot;&gt;&lt;br&gt;&lt;/td&gt;&lt;/tr&gt;&lt;/tbody&gt;&lt;/table&gt;" style="text;html=1;strokeColor=none;fillColor=none;overflow=fill;" parent="UYFH1C3IYtYCgIGTboO--1" vertex="1">
                    <mxGeometry x="430" y="70" width="100" height="100" as="geometry"/>
                </mxCell>
                <mxCell id="UYFH1C3IYtYCgIGTboO--12" value="" style="endArrow=classic;html=1;entryX=0;entryY=0.25;entryDx=0;entryDy=0;" parent="UYFH1C3IYtYCgIGTboO--1" target="UYFH1C3IYtYCgIGTboO--2" edge="1">
                    <mxGeometry width="50" height="50" relative="1" as="geometry">
                        <mxPoint x="160" y="320" as="sourcePoint"/>
                        <mxPoint x="320" y="210" as="targetPoint"/>
                    </mxGeometry>
                </mxCell>
                <mxCell id="UYFH1C3IYtYCgIGTboO--13" value="" style="endArrow=classic;html=1;entryX=0;entryY=0.75;entryDx=0;entryDy=0;" parent="UYFH1C3IYtYCgIGTboO--1" target="UYFH1C3IYtYCgIGTboO--2" edge="1">
                    <mxGeometry width="50" height="50" relative="1" as="geometry">
                        <mxPoint x="160" y="320" as="sourcePoint"/>
                        <mxPoint x="250" y="300" as="targetPoint"/>
                    </mxGeometry>
                </mxCell>
                <mxCell id="UYFH1C3IYtYCgIGTboO--14" value="" style="endArrow=classic;html=1;" parent="UYFH1C3IYtYCgIGTboO--1" edge="1">
                    <mxGeometry width="50" height="50" relative="1" as="geometry">
                        <mxPoint x="440" y="320" as="sourcePoint"/>
                        <mxPoint x="360" y="290" as="targetPoint"/>
                    </mxGeometry>
                </mxCell>
                <mxCell id="UYFH1C3IYtYCgIGTboO--15" value="" style="endArrow=classic;html=1;entryX=1;entryY=0.75;entryDx=0;entryDy=0;" parent="UYFH1C3IYtYCgIGTboO--1" target="UYFH1C3IYtYCgIGTboO--2" edge="1">
                    <mxGeometry width="50" height="50" relative="1" as="geometry">
                        <mxPoint x="440" y="320" as="sourcePoint"/>
                        <mxPoint x="370" y="300" as="targetPoint"/>
                    </mxGeometry>
                </mxCell>
            </root>
        </mxGraphModel>
    </diagram>
</mxfile>